# xmcd
#
# Track frame offsets: 
#        150
#        13852
#        28677
#        40327
#        55567
#        69075
#        81447
#        92567
#        104732
#        115665
#        129537
#        143382
#        155180
#        166902
#        177567
#        193030
#        210007
#        221142
#        232735
#        244240
#
# Disc length: 3403 seconds
#
# Revision: 2
# Processed by: cddbd v1.5.2PL0 Copyright (c) Steve Scherf et al.
# Submitted via: ExactAudioCopy v0.99pb3
#
DISCID=0e0d4914
DTITLE=Glen Campbell - The Complete - His 20 Greatest Hits
DYEAR=1989
DGENRE=Country
TTITLE0=Southern Nights
TTITLE1=Rhinestone Cowboy
TTITLE2=All I Have To Do Is Dream
TTITLE3=Then You Can Tell Me Goodbye
TTITLE4=Gentle On My Mind
TTITLE5=By The Time I Get To Phoenix
TTITLE6=It's Only Make Believe
TTITLE7=I Can't Help It (If I'm Still In Love With You)
TTITLE8=Reason To Believe
TTITLE9=Wichita Lineman
TTITLE10=Honey Come Back
TTITLE11=Galveston
TTITLE12=Dreams Of The Everyday Housewife
TTITLE13=Help Me Make It Through The Night
TTITLE14=Bridge Over Troubled Water
TTITLE15=Both Sides Now
TTITLE16=I'm So Lonesome I Could Cry
TTITLE17=Dream Baby
TTITLE18=Everything A Man Could Ever Need
TTITLE19=Try A Little Kindness
EXTD=Stylus Music Ltd.\n
EXTT0=
EXTT1=
EXTT2=Duet with Bobbie Gentry
EXTT3=
EXTT4=
EXTT5=
EXTT6=
EXTT7=
EXTT8=
EXTT9=
EXTT10=
EXTT11=
EXTT12=
EXTT13=
EXTT14=
EXTT15=
EXTT16=
EXTT17=
EXTT18=
EXTT19=
PLAYORDER=
